# xmcd
#
# Track frame offsets:
#	150
#	14565
#	32831
#	52028
#	64697
#	80427
#	98654
#	116634
#	130928
#	147338
#	168566
#	183889
#	200691
#
# Disc length: 2943 seconds
#
# Revision: 1
# Processed by: cddbd v1.5.2PL0 Copyright (c) Steve Scherf et al.
# Submitted via: audiograbber 1.83.01
#
DISCID=b80b7d0d
DTITLE=Adam Brand - What A Life
DYEAR=2006
DGENRE=Country
TTITLE0=Kinda Like It
TTITLE1=Open Ended Heartache
TTITLE2=Life Will Bring You Home
TTITLE3=Party Till The Money's All Gone
TTITLE4=Can't Live Without Your Love
TTITLE5=That Changes Everything
TTITLE6=My Boots
TTITLE7=The Bug
TTITLE8=Cigarettes and Whiskey
TTITLE9=What A Life
TTITLE10=Settle Down
TTITLE11=Drive It Till The Wheels Fall Off
TTITLE12=The Lucky One
EXTD=
EXTT0=
EXTT1=
EXTT2=
EXTT3=
EXTT4=
EXTT5=
EXTT6=
EXTT7=
EXTT8=
EXTT9=
EXTT10=
EXTT11=
EXTT12=
PLAYORDER=
